<!-- Source: https://www.flaticon.com/free-icon/woman_892770 -->

<svg version="1.1" id="Capa_1" xmlns="http://www.w3.org/2000/svg" xmlns:xlink="http://www.w3.org/1999/xlink" x="0px" y="0px"
	 viewBox="0 0 512.428 512.428" style="enable-background:new 0 0 512.428 512.428;" xml:space="preserve">
<path style="fill:#455A64;" d="M421.398,385.388L339.67,364.95l-4.715-18.88c30.215-4.097,59.52-13.272,86.677-27.136
	c3.027-1.815,4.959-5.01,5.163-8.533c0.214-3.526-1.307-6.935-4.075-9.131c-0.384-0.256-38.507-31.744-38.507-140.843
	c0-92.011-21.525-138.667-64-138.667h-6.4c-14.736-15.835-36.104-23.749-57.6-21.333c-40.085,0-128,40.299-128,160
	c0,109.099-38.123,140.587-38.4,140.8c-4.717,3.528-5.681,10.213-2.153,14.931c0.828,1.107,1.864,2.043,3.049,2.755
	c27.133,13.994,56.477,23.203,86.741,27.221l-4.715,18.837L91.03,385.409C37.608,398.701,0.135,446.71,0.214,501.761
	c0,5.891,4.776,10.667,10.667,10.667h490.667c5.891,0,10.667-4.776,10.667-10.667C512.302,446.702,474.828,398.681,421.398,385.388z
	"/>
<g>
</g>
<g>
</g>
<g>
</g>
<g>
</g>
<g>
</g>
<g>
</g>
<g>
</g>
<g>
</g>
<g>
</g>
<g>
</g>
<g>
</g>
<g>
</g>
<g>
</g>
<g>
</g>
<g>
</g>
</svg>
